/* XPM */
static char * baddie_xpm[] = {
"16 16 7 1",
" 	c None",
".	c #FFFFFF",
"+	c #070A25",
"@	c #FF0E2E",
"#	c #2E08FF",
"$	c #1107A3",
"%	c #07074D",
"................",
"...++......++...",
".....++..++.....",
".....@##$$@.....",
"....@+#$$$+@....",
"....++%$$%++....",
"...+#$++++$$+...",
"..%+###++##$+%..",
"...+###++##$+...",
"..%+#$#++#$$+%..",
"...+$$$++$$$+...",
"..%+%$$++$$%+%..",
"....+%$++$%+....",
"...%%+%++%+%%...",
"......++++......",
"................"};
