/* XPM */
static char * food_xpm[] = {
"16 16 15 1",
" 	c None",
".	c #F8FCF8",
"+	c #C8CCC8",
"@	c #202020",
"#	c #F0F0F0",
"$	c #E0E0E0",
"%	c #404040",
"&	c #A0A0A0",
"*	c #808080",
"=	c #F83000",
"-	c #E02A00",
";	c #C02400",
">	c #A01E00",
",	c #801800",
"'	c #606060",
"................",
".+++++++++++++@.",
".+######$$$$$%@.",
".+###$$$$$$$&%@.",
".+##$$$$$$$&*%@.",
".+#$$$$==$$&*%@.",
".+#$$$$=-$$&*%@.",
".+#$$==-;;>&*%@.",
".+$$$=-;;>,*'%@.",
".+$$$$$;>&&*'%@.",
".+$$$$$>,&**'%@.",
".+$$&&&&***''%@.",
".+$&****'''''%@.",
".+%%%%%%%%%%%%@.",
".@@@@@@@@@@@@@@.",
"................"};
