/* XPM */
static char *food_xpm[] = {
/* width height num_colors chars_per_pixel */
"    16    16        4            1",
/* colors */
". c #f83000",
"# c #c8ccc8",
"a c #989898",
"b c #f8fcf8",
/* pixels */
"bbbbbbbbbbbbbbbb",
"bbbbbbbbbbbbbbbb",
"bbbbbbbbbbbbbbbb",
"bbb#bbbbbb#b#abb",
"bbbbbbbbbbbbbabb",
"bbbbbbbbbbbbbabb",
"bbbbbbbb.bbbbabb",
"bbbbbbbb.bbbbabb",
"bbbbbb.....bbabb",
"bbbbbbbb.bbbbabb",
"bbbbbbbb.bbbbabb",
"bbbbbbbbbbbbbabb",
"bbbbbbbbbbbbbabb",
"bbbaaaaaaaaaaabb",
"bbbbbbbbbbbbbbbb",
"bbbbbbbbbbbbbbbb"
};
