/* XPM */
static char * prize_xpm[] = {
"16 16 15 1",
" 	c None",
".	c #F8FCF8",
"+	c #000080",
"@	c #0000C0",
"#	c #FFFFFF",
"$	c #808040",
"%	c #000040",
"&	c #C0C0C0",
"*	c #A0A0A0",
"=	c #606060",
"-	c #1515AB",
";	c #808080",
">	c #1C1C9C",
",	c #151595",
"'	c #404040",
"................",
".++++++++++++++.",
".+@#$#$#$#$#@+%.",
".+@##$#$#$##@+%.",
".+@#$#$#$#$#@+%.",
".+@##$#$#$##@+%.",
".+@#$#$#$#$#@+%.",
".+@#########@+%.",
".+@@@@@@@@@@@+%.",
".+@@&&****=-@+%.",
".+@@&*@@;;=>@+%.",
".+@@*;@@;==,@+%.",
".+@@;;@@==',@+%.",
".+++==++=''+++%.",
"..%%'''''''%%%%.",
"................"};
