/* XPM */
static char * statusbar_xpm[] = {
"96 32 23 1",
" 	c None",
".	c #323232",
"+	c #343434",
"@	c #363636",
"#	c #313131",
"$	c #373737",
"%	c #3A3A3A",
"&	c #393939",
"*	c #2F2F2F",
"=	c #262626",
"-	c #282828",
";	c #2A2A2A",
">	c #2D2D2D",
",	c #1B1B1B",
"'	c #1D1D1D",
")	c #222222",
"!	c #242424",
"~	c #202020",
"{	c #2B2B2B",
"]	c #3D3D3D",
"^	c #3C3C3C",
"/	c #3F3F3F",
"(	c #191919",
".++@@++.##.$%&*=-;>#..>-,')!=)','~=>#*>;-;{>>*>*#......#=;*$&${~)!-;>>>>**#+++*{{>*#.++..+@&&&$@",
"++@@@.#**>#@&&#{-->*+.>>'~)!!~',''=>##>{-;{>>***##..++..;{*@&@>=!!-{>>>>>**.@+#>>>>#...+#.@$$$$@",
"++@@+#>>>{>+&&+*--{>.+.*!!!!)~''''!{*#*>;;{>>*#....+@++@>>>#@+*;!=;{>>>>>>*#@@+#{>>*##..#.+@@@@+",
"+@@@.*{---{#@&$+;-;>#+++;;-=)~''''!;*#*>{{{>>#.+..++@$$$*>{>*#>{=-;>>>>>>>>*.$@@{>>>>##.##...+.+",
".@@@+*;===;>.@&${;;{*.@@>>{-=)~~'~);>###>>>>>#.@..++@$&&.>;-{>{-=-{>>*>>>{;>#+@@>{{>>>*#***####.",
"#.@$+>;!!=-;>.@&*>-->#+@##*>{-!)~~)->#..*>>>>#+@++++@$&&@#;=-;-!!-{>**>>{;=-{*.+{{{;{>*#**>>>*##",
"*.@@@*{====-{>+$.>;-;>#..++.#>-!))!->*#.##>>>#+$+++@@@$&%+>;--!)!={>##*>{-))=>*#>{;-;>>**>>>>>**",
">#@$@#{-====->.$@#;!->*#.+@$.>;!!!!=>*...#>>>*+$+@++@$$&]$#{;-!~)={>##**{=~~);>>{{;-;{>**>>{{>>*",
";>+&&.>;)-;;-;>.+.#>;;>*##.$%&#;!!)={>##+..*>>.+++$+..&%$&&.;!!!=={*..*>{-)''~!;=-;=!!{*#*>>>>>*",
"-{*+&@*{!={;;;>#+.#>{;>*#**@&&+>-=!={>*#...#>*#.+@@+.#@&&&&+>=!==-;>.+#*{;!~')!-=;;-!!;>.#*>>>**",
"{;;*@&+>=-;;;{>*++.*{{{>**>.$&@.{;--{>>>.+.#**#.+@@+#*#.&^^&*;--;;{>#+++>;=)~~!=-;{;!)-{####*###",
">=!;+%$.=-;;{{>*.++#>{>>>>>*+&&&>{{;>>>>.++.***#@@@+#*>>&^]%@>;-{{{>#@@${;=!))!!-{>;!!!;##....##",
">-~-.&&+;;-;{>>>#.++#>>{>>>>#@&&+#>>>>>>..++####+@@@.*{=@&/]&#{;>>{>#++@;;-=!!)!=;>;=)!-*#++@++.",
">-)-*@$@{;-;>>>>*.@@.*>>{{{>*+$&@+#*>*>>#.+@.##.++@@@#;!*$]/&.>{>>>>#.#*=-==!!!)!-{{=!!->#+@$@+#",
">{;;>#@@>;-->>>{>#@$@#>>;{>>*#@$&@.#***>>.+@+.#.+++$&.>!-#%/%+>{>>>*#*>;!!====))~={{-==;>*+$&@+#",
"#>>{{>.+>;=;>>>{>*@&@.*>>{>>>*.@%&+.##*>>#+@+.....@&&+>!!>&]%@>>>>>##>;=))====!)'!;{-=-;>>+$&@.#",
"=-;>*#**{{-;>>>{>>*+&&.{{{{{>*#+@@$$@+#*>>*+$$+.##+$&&#;=;>+&$.>>>*#.*-~''~=;-!~'~!=--;-{>#@&&@.",
"-=-{#..*>{;;>>>>{;>.$&.>{{{{>*#.@$$$$@..>>*.@$@...+&%&+>-;>.@@.>*>>*.#{!''~=--=~~~)!--;;{>*+&&$+",
"{=!;#$@.>{;{>**>;-{*$$+#>>>>>>**@@$&$$$@>>*.@$$@.#.$%%$.;;>#.+#**{->+@>=''')-;-=~)!=--;->>*+&&&$",
">=~-#&&+>>{{>*##--->.$@.>>>>>>>*+@$&&&&&##*#+@$@.##+&&&+{{>*#.#**;)-#@#;''')=;;-)!!=--;;{>>#@&&$",
">-)=*$&&*>>>*#.#;-!;*++.*>>>>>>>.+@$&&%%+.*#.@$$.*>*+$@.>>>*##*>>!'!>.#>~'''!-;{===--;;;>>{>.$$&",
">;==>.$&+*>>*...>;!={*##>*>>>>>>#.+@$&&%&+#*#+$&+*>>*.#**>*#.#>;=~''=>**!)'')-;;;;-;;;{{*>{{>.++",
">>{-->@^@.*>#...#{=!->*>>>>>>>>>##.+@&&%&$#**+$$&.>{>**>**.++#{-''','!>.;)''~=-{{{{;{{>>*>;-{>*#",
">>>;!>+^$+***.+.+>=)={>>>>>>***>**#.@$&&^&#**.@&%@>{>>>>*#+$@#{!(,'(('{.{=~''!-;>>{{{{>>.>-=-{>>",
">>>{;>*.@+####.@.#>=~~->;{>>>*>*>>*#.+$&&&@#>>#@$$.>{{>*+##+&$*-,'''(')-;-!)');>*>>>>>*##*{-=-;>",
">>>{{{>#++.####.+.#;!)->{>>>>**>>>**.+@$&&$#>{>+&$+#>>*..##+&$#{''~','~=-;=)~!->>*>****#.*>-=-;{",
">>>>{{>*++..***>+@+>-!=;{{>>****>>>*#.++&&$.>;>*$$+#*>#+#**+$&@#)))'''~);;-!))->>*##..+..*>-=-;;",
">>>>>{{>..+.#*>;+@$.>==-{{>>>*#*>>>>**..$&&+>-;{++.#**#.*>>#$&$@--!)~'~);;;-=!-;>*#+@@@++#>-==-;",
"{>**>{{{#.++.>-=*+$$#;=={{{>>**#>>>>>**#+$&+>-=->>**>>*#>>>*.$&&>>;=!!))-{>{---;>*.+@$$&@.>;-=-;",
"{>*#>>{{>#+@.>=~-*$&+>-!;;{{>>*#>>>>>>>**+$@*;==;{>>>>>*>{>>*+$&.*>{;;=!;{>>>{;{>**.@$&&&+*{---;",
"->*#*>{{>*+@+>!'~;@&@*-=;;;;>>**>>>>>>>>{#@@*;==-;>>>>>#>>{{>*+&$+>>>>{=-{***>{>>>**.$&^&$#>---;",
"-{*#*>{{;>+@+>!'(-.&$*;=---;{>***>>>>>>>-*+@#{=!-{>>>>*#>{;-;>.$&@#***>{->*.*>>>*>>>#@&]&$.>;-;{"};
