/* XPM */
static char *prize_xpm[] = {
/* width height num_colors chars_per_pixel */
"    16    16        8            1",
/* colors */
". c #303098",
"# c #003098",
"a c #989898",
"b c #c8ccc8",
"c c #606460",
"d c #f8fcf8",
"e c #989800",
"f c #000000",
/* pixels */
"dddddddddddddddd",
"dddddddddddddddd",
"dddddddddddddddd",
"dddddddddddddddd",
"dddd........dddd",
"dddd#deeeed.dddd",
"dddd#dedded#dddd",
"dddd#dedddd#dddd",
"dddd##.#.###dddd",
"dddd##c#cc##dddd",
"dddd##c#cc#.dddd",
"dddd.#cccc#.dddd",
"dddddddddddddddd",
"dddddddddddddddd",
"dddddddddddddddd",
"dddddddddddddddd"
};
