/* XPM */
static char *robot_east_xpm[] = {
/* width height num_colors chars_per_pixel */
"    16    16        5            1",
/* colors */
". c #bfbfbf",
"# c #000000",
"a c #808080",
"b c #c0c0c0",
"c c #ffffff",
/* pixels */
"................",
"................",
"................",
"..####...####...",
".#bccb#.#bccb#..",
"#bccccb#bccccb#.",
"#cccccc#cccccc#a",
"#ccc##c#ccc##c#a",
"#ccc##c#ccc##c#a",
"#bccccb#bccccb#a",
".#bccb#a#bccb#aa",
"..####aa.####aa.",
"...aaaa...aaaa..",
"................",
"................",
"................"
};
