/* XPM */
static char *robot_south_xpm[] = {
/* width height num_colors chars_per_pixel */
"    16    16        5            1",
/* colors */
". c #bfbfbf",
"# c #000000",
"a c #808080",
"b c #c0c0c0",
"c c #ffffff",
/* pixels */
"................",
"................",
"................",
"..####...####...",
".#bccb#.#bccb#..",
"#bccccb#bccccb#.",
"#cccccc#cccccc#a",
"#cccccc#cccccc#a",
"#cc##cc#cc##cc#a",
"#bc##cb#bc##cb#a",
".#bccb#a#bccb#aa",
"..####aa.####aa.",
"...aaaa...aaaa..",
"................",
"................",
"................"
};
